<?xml version="1.0" encoding="utf-8"?>
<!-- Generator: Adobe Illustrator 16.0.0, SVG Export Plug-In . SVG Version: 6.00 Build 0)  -->
<!DOCTYPE svg PUBLIC "-//W3C//DTD SVG 1.1//EN" "http://www.w3.org/Graphics/SVG/1.1/DTD/svg11.dtd">
<svg version="1.1" id="Layer_1" xmlns="http://www.w3.org/2000/svg" xmlns:xlink="http://www.w3.org/1999/xlink" x="0px" y="0px"
	 width="24px" height="24px" viewBox="0 0 24 24" enable-background="new 0 0 24 24" xml:space="preserve">
<path fill="#5F6368" d="M3-952h18v9c0,0.833-0.291,1.542-0.875,2.125S18.834-940,18-940H6c-0.833,0-1.542-0.292-2.125-0.875
	S3-942.167,3-943V-952z M5-950v7c0,0.283,0.096,0.521,0.288,0.712C5.479-942.096,5.717-942,6-942h12
	c0.283,0,0.521-0.096,0.713-0.288C18.904-942.479,19-942.717,19-943v-7H5z M3-953v-2h6v-1c0-0.283,0.096-0.521,0.288-0.712
	C9.479-956.904,9.717-957,10-957h4c0.283,0,0.521,0.096,0.713,0.288C14.904-956.521,15-956.283,15-956v1h6v2H3z"/>
<path fill="#5F6368" d="M3,8.5h18v9c0,0.834-0.291,1.541-0.875,2.125S18.834,20.5,18,20.5H6c-0.833,0-1.542-0.291-2.125-0.875
	S3,18.334,3,17.5V8.5z M5,10.5v7c0,0.283,0.096,0.521,0.288,0.713C5.479,18.404,5.717,18.5,6,18.5h12
	c0.283,0,0.521-0.096,0.713-0.287S19,17.783,19,17.5v-7H5z M3,7.5v-2h6v-1c0-0.283,0.096-0.521,0.287-0.712
	C9.479,3.596,9.717,3.5,10,3.5h4c0.283,0,0.521,0.096,0.713,0.288C14.904,3.979,15,4.217,15,4.5v1h6v2H3z"/>
</svg>
